<svg xmlns="http://www.w3.org/2000/svg" version="1.1" xmlns:xlink="http://www.w3.org/1999/xlink" xmlns:svgjs="http://svgjs.dev/svgjs" width="1000" height="623" viewBox="0 0 1000 623"><g transform="matrix(1,0,0,1,-0.6060606060606233,0.2522267206477409)"><svg viewBox="0 0 396 247" data-background-color="#161618" preserveAspectRatio="xMidYMid meet" height="623" width="1000" xmlns="http://www.w3.org/2000/svg" xmlns:xlink="http://www.w3.org/1999/xlink"><g id="tight-bounds" transform="matrix(1,0,0,1,0.2400000000000091,-0.09999999999999432)"><svg viewBox="0 0 395.52 247.2" height="247.2" width="395.52"><g><svg></svg></g><g><svg viewBox="0 0 395.52 247.2" height="247.2" width="395.52"><g transform="matrix(1,0,0,1,159.35977900552484,65.92)"><svg viewBox="0 0 76.80044198895027 115.35999999999999" height="115.35999999999999" width="76.80044198895027"><g><svg viewBox="0 0 76.80044198895027 115.35999999999999" height="115.35999999999999" width="76.80044198895027"><g><svg viewBox="0 0 76.80044198895027 115.35999999999999" height="115.35999999999999" width="76.80044198895027"><g id="textblocktransform"><svg viewBox="0 0 76.80044198895027 115.35999999999999" height="115.35999999999999" width="76.80044198895027" id="textblock"><g><svg viewBox="0 0 76.80044198895027 115.35999999999999" height="115.35999999999999" width="76.80044198895027"><g transform="matrix(1,0,0,1,0,0)"><svg width="76.80044198895027" viewBox="1.5 -35.45 24.1 36.2" height="115.35999999999999" data-palette-color="#ffffff"><path d="M12.55-4.7L12.55-4.7Q15.95-4.7 17.5-5.85 19.05-7 19.05-9.1L19.05-9.1Q19.05-10.35 18.53-11.25 18-12.15 17.03-12.88 16.05-13.6 14.65-14.23 13.25-14.85 11.45-15.45L11.45-15.45Q9.65-16.1 7.98-16.88 6.3-17.65 5.03-18.8 3.75-19.95 2.98-21.55 2.2-23.15 2.2-25.4L2.2-25.4Q2.2-30.1 5.45-32.77 8.7-35.45 14.3-35.45L14.3-35.45Q17.55-35.45 20.08-34.73 22.6-34 24.05-33.15L24.05-33.15 22.1-28.05Q20.4-29 18.38-29.5 16.35-30 14.2-30L14.2-30Q11.65-30 10.23-28.95 8.8-27.9 8.8-26L8.8-26Q8.8-24.85 9.28-24.03 9.75-23.2 10.63-22.55 11.5-21.9 12.68-21.35 13.85-20.8 15.25-20.3L15.25-20.3Q17.7-19.4 19.63-18.48 21.55-17.55 22.88-16.28 24.2-15 24.9-13.28 25.6-11.55 25.6-9.1L25.6-9.1Q25.6-4.4 22.28-1.83 18.95 0.75 12.55 0.75L12.55 0.75Q10.4 0.75 8.63 0.48 6.85 0.2 5.48-0.2 4.1-0.6 3.1-1.03 2.1-1.45 1.5-1.8L1.5-1.8 3.35-6.95Q4.7-6.2 7-5.45 9.3-4.7 12.55-4.7Z" opacity="1" transform="matrix(1,0,0,1,0,0)" fill="#ffffff" class="undefined-text-0" data-fill-palette-color="primary" id="text-0"></path></svg></g></svg></g></svg></g></svg></g></svg></g></svg></g><g mask="url(#8ad6e7aa-a9b7-4fc3-ae91-f253bb3f8119)"><g transform="matrix(3.1844155844155844, 0, 0, 3.1844155844155844, 58.60103896103894, 1)"><svg xmlns="http://www.w3.org/2000/svg" xmlns:xlink="http://www.w3.org/1999/xlink" version="1.1" x="0" y="0" viewBox="6.3 11.5 87.4 77" style="enable-background:new 0 0 100 100;" xml:space="preserve" height="77" width="87.4" class="icon-none" data-fill-palette-color="accent" id="none"><path d="M72.3 12.3L72.3 12.3 72.3 12.3l-0.4-0.8H28.2L6.3 50l21.8 38.5h43.7L93.7 50 72.3 12.3zM33.3 25.3L9.9 47.7l18.6-32.8L33.3 25.3zM70.7 14.8l6.4 35.7L36.9 25.8 70.7 14.8zM35.5 27.3l41 25.2-41 23.3V27.3zM77 54.5l-7.2 30.8-32.6-8.1L77 54.5zM33.5 75L9.9 50.5l23.6-22.7V75zM33.2 77.6l-4.6 7.7L11.5 55.1 33.2 77.6zM35 78.6l31.4 7.9H30.2L35 78.6zM79.3 53.3l11.6-2.5L72.1 84 79.3 53.3zM90.7 48.9l-11.4 2.5-5.9-33.1L90.7 48.9zM35 24.3l-5-10.8h38.2L35 24.3z" fill="#ffffff" data-fill-palette-color="accent"></path></svg></g></g></svg></g><defs><mask id="8ad6e7aa-a9b7-4fc3-ae91-f253bb3f8119"><rect width="640" height="400" fill="white"></rect><rect width="84.4804861878453" height="169.82745472" fill="black" x="277.75975690607737" y="115.08627264" id="transform-me" transform="matrix(1,0,0,1,-122.24000000000001,-76.4)"></rect></mask></defs></svg><rect width="395.52" height="247.2" fill="none" stroke="none" visibility="hidden"></rect></g></svg></g></svg>