<svg xmlns="http://www.w3.org/2000/svg" version="1.1" xmlns:xlink="http://www.w3.org/1999/xlink" xmlns:svgjs="http://svgjs.dev/svgjs" width="2000" height="1247" viewBox="0 0 2000 1247"><g transform="matrix(1,0,0,1,-1.2121212121212466,0.504858299595071)"><svg viewBox="0 0 396 247" data-background-color="#ffffff" preserveAspectRatio="xMidYMid meet" height="1247" width="2000" xmlns="http://www.w3.org/2000/svg" xmlns:xlink="http://www.w3.org/1999/xlink"><g id="tight-bounds" transform="matrix(1,0,0,1,0.2400000000000091,-0.09999999999999432)"><svg viewBox="0 0 395.52 247.2" height="247.2" width="395.52"><g><svg></svg></g><g><svg viewBox="0 0 395.52 247.2" height="247.2" width="395.52"><g transform="matrix(1,0,0,1,132.28731428571427,47.215199999999996)"><svg viewBox="0 0 130.94537142857143 152.7696" height="152.7696" width="130.94537142857143"><g><svg viewBox="0 0 130.94537142857143 152.7696" height="152.7696" width="130.94537142857143"><g><svg viewBox="0 0 130.94537142857143 152.7696" height="152.7696" width="130.94537142857143"><g><svg viewBox="0 0 130.94537142857143 152.7696" height="152.7696" width="130.94537142857143"><g id="textblocktransform"><svg viewBox="0 0 130.94537142857143 152.7696" height="152.7696" width="130.94537142857143" id="textblock"><g><svg viewBox="0 0 130.94537142857143 152.7696" height="152.7696" width="130.94537142857143"><g transform="matrix(1,0,0,1,0,0)"><svg width="130.94537142857143" viewBox="0.15000000596046448 -35.29999923706055 30.600000381469727 35.70000076293945" height="152.7696" data-palette-color="#ffca02"><path d="M30.4-1.95L30.75 0 21.05 0 19.9-1.2 23.8-2.3 22.25-9.35 21.05-11.65 8.65-10.1 7.85-7.4 7.1-2.3 10.2-1.2 10.2 0.4 0.15-0.35 0.15-1.95 3.2-2.7 12.5-35.3 17.95-34.5 27.7-2.7 30.4-1.95ZM9.8-13.15L19.9-15.1 15.65-30.65 14.9-30.25 9.8-14 9.8-13.15Z" opacity="1" transform="matrix(1,0,0,1,0,0)" fill="#ffca02" class="wordmark-text-0" data-fill-palette-color="primary" id="text-0"></path></svg></g></svg></g></svg></g></svg></g></svg></g></svg></g></svg></g><g><path d="M0 123.6c0-68.262 55.338-123.6 123.6-123.6 30.402 0 58.24 10.976 79.768 29.183l-11.147 0c-19.26-14.022-42.974-22.294-68.621-22.295-64.458 0-116.712 52.254-116.712 116.712 0 64.458 52.254 116.712 116.712 116.712 25.647 0 49.361-8.272 68.621-22.295l11.147 0c-21.528 18.206-49.366 29.183-79.768 29.183-68.262 0-123.6-55.338-123.6-123.6z" fill="#fbeaab" stroke="transparent" data-fill-palette-color="tertiary"></path></g></svg></g><defs></defs></svg><rect width="395.52" height="247.2" fill="none" stroke="none" visibility="hidden"></rect></g></svg></g></svg>